<svg xmlns="http://www.w3.org/2000/svg"  viewBox="0 0 50 50" width="50px" height="50px"><path d="M 25 0 C 22.253 0 22.100094 4.3129531 19.371094 6.2519531 L 19.376953 6.2519531 L 11.416016 10.861328 C 8.4289746 12.023386 4.8123876 10.189736 3.4804688 12.490234 C 2.1636738 14.764611 5.4626876 16.964434 6 20.076172 L 6 29.855469 C 5.4629904 32.967576 2.1626147 35.166859 3.4804688 37.441406 C 4.7641879 39.657038 8.1669536 38.032231 11.083984 38.947266 L 19.455078 43.794922 C 22.099533 45.76313 22.281888 49.978516 25 49.978516 C 27.718112 49.978516 27.900467 45.76313 30.544922 43.794922 L 38.845703 38.986328 C 41.787844 37.992727 45.26137 39.685352 46.560547 37.441406 C 47.917323 35.101388 44.382035 32.842666 44 29.585938 L 44 20.351562 C 44.378469 17.092534 47.916928 14.831277 46.560547 12.490234 C 45.208889 10.157344 41.509544 12.078165 38.5 10.8125 L 30.623047 6.2519531 L 30.628906 6.2519531 C 27.899906 4.3129531 27.747 0 25 0 z M 23.416016 5.5878906 C 23.800556 6.1851555 24.177488 6.9409948 24.5 7.6972656 L 24.5 15.904297 L 22.449219 20.548828 L 17.453125 20.001953 L 10.361328 15.896484 C 9.8721005 15.242538 9.4098012 14.541568 9.0878906 13.914062 L 9.9492188 12.865234 L 22.158203 5.7949219 L 23.416016 5.5878906 z M 26.583984 5.5878906 L 27.841797 5.7949219 L 40.132812 12.914062 L 40.955078 13.914062 C 40.633423 14.541698 40.172386 15.243178 39.683594 15.896484 L 32.587891 20.005859 L 27.554688 20.550781 L 25.5 15.882812 L 25.5 7.6972656 C 25.822512 6.9409948 26.199444 6.1851555 26.583984 5.5878906 z M 8.4042969 16.640625 C 8.8784332 16.65628 9.3733329 16.70408 9.8613281 16.763672 L 16.855469 20.814453 L 19.894531 24.96875 L 16.855469 29.117188 L 9.859375 33.167969 C 9.0487494 33.266915 8.2112302 33.319742 7.5058594 33.287109 L 7 31.951172 L 7 17.980469 L 7.5058594 16.644531 C 7.7868594 16.631531 8.0905469 16.630266 8.4042969 16.640625 z M 41.638672 16.640625 C 41.952422 16.630266 42.256109 16.631531 42.537109 16.644531 L 43 17.867188 L 43 32.060547 L 42.535156 33.287109 C 41.830414 33.319713 40.993553 33.268686 40.183594 33.169922 L 33.097656 29.064453 L 30.105469 24.974609 L 33.128906 20.847656 L 40.181641 16.763672 C 40.669636 16.70408 41.164536 16.65628 41.638672 16.640625 z M 22.445312 29.392578 L 24.5 34.060547 L 24.5 42.28125 C 24.177488 43.037521 23.800556 43.795313 23.416016 44.392578 L 22.109375 44.177734 L 10.056641 37.195312 L 9.0878906 36.017578 C 9.410161 35.388743 9.8734391 34.687553 10.363281 34.033203 L 17.443359 29.933594 L 22.445312 29.392578 z M 27.550781 29.394531 L 32.628906 29.949219 L 39.675781 34.03125 C 40.166238 34.686417 40.630495 35.388669 40.953125 36.017578 L 40.021484 37.150391 L 27.890625 44.177734 L 26.583984 44.392578 C 26.199444 43.794684 25.822512 43.037314 25.5 42.28125 L 25.5 34.039062 L 27.550781 29.394531 z"/></svg>