<svg xmlns="http://www.w3.org/2000/svg"  viewBox="0 0 48 48" width="48px" height="48px" baseProfile="basic"><linearGradient id="OioW6PmgSKw-oKtquLMfTa" x1="-.576" x2="44.665" y1="-.011" y2="45.23" gradientUnits="userSpaceOnUse"><stop offset="0" stop-color="#262626" stop-opacity="0"/><stop offset="1" stop-color="#262626" stop-opacity=".8"/></linearGradient><path fill="url(#OioW6PmgSKw-oKtquLMfTa)" d="M32.5,7c-3.221,0-6.282,1.277-8.822,3.133C22.633,10.896,22,12.101,22,13.395v4.668	c2.51-5.232,9.308-9.275,15.322-5.715c2.393,1.417,4.111,3.84,4.552,6.586C42.826,24.861,38.252,30,32.5,30	c-1.991,0-3.949-0.653-5.571-1.807c-2.554-1.818-3.101-4.449-4.979-6.494c-1.753-1.91-4.141-3.179-6.704-3.568	C14.669,18.043,14.084,18,13.5,18C7.182,18,2.038,23.121,2,29.431c-0.03,5.023,3.18,9.344,7.932,10.97	c3.181,1.088,6.356,0.626,9.04-0.822C20.241,38.894,21,37.534,21,36.093v-4.11c-1.559,3-4.688,5.018-7.5,5.018	C9.364,37,6,33.636,6,29.5S9.364,22,13.5,22c1.644,0,3.264,0.547,4.565,1.553c2.16,1.669,2.93,4.496,4.828,6.42	c1.834,1.859,4.201,3.166,6.752,3.72C30.583,33.897,31.541,34,32.5,34C39.944,34,46,27.944,46,20.5S39.944,7,32.5,7z"/></svg>