<?xml version="1.0" encoding="utf-8" ?>
<svg xmlns="http://www.w3.org/2000/svg" xmlns:xlink="http://www.w3.org/1999/xlink" width="1024" height="1024">
	<path fill="#C8D5F6" transform="scale(2 2)" d="M326.355 70.9078L331.629 58.5544C334.849 51.0829 337.566 43.427 345.674 40.0797C356.556 35.5871 368.211 41.2595 372.317 52.0452C374.395 57.5038 373.814 63.9687 373.806 69.703L373.796 83.8085C374.167 90.5238 374.324 103.002 373.796 109.688C381.128 119.873 394.187 140.826 397.341 153.265C410.011 152.988 418.541 154.131 428.109 163.329C442.861 177.51 439.43 198.781 439.419 217.699C439.413 227.159 440.34 238.457 437.761 247.589C433.246 263.576 418.553 274.072 402.047 274.114C396.53 274.128 390.602 273.385 385.165 274.629C383.574 275.276 377.593 285.897 376.085 287.999C362.038 307.586 343.586 323.853 322.093 334.814C320.341 335.707 318.188 336.522 316.596 337.63C308.913 341.899 300.253 344.601 291.795 346.848C275.104 351.592 255.422 352.057 238.294 349.788C232.709 349.049 226.279 346.902 220.863 346.851L220.377 346.848C216.099 345.089 199.757 338.403 195.946 337.63C195.684 336.628 185.328 331.544 183.645 330.542C165.484 319.73 148.113 305.936 135.856 288.513C134.13 286.059 127.516 274.95 126.344 273.888C110.381 273.92 97.3908 275.812 84.3526 264.37C69.5606 251.389 72.1792 232.799 72.1611 215.22C72.1521 206.477 71.3298 192.422 73.2359 184.21C77.1748 167.241 91.3962 154.103 109.145 153.265C110.91 152.726 113.078 153.12 114.883 153.265C121.399 135.866 128.94 125.53 138.16 110.612C138.044 107.371 137.788 103.859 138.16 100.642C138.32 97.31 138.163 93.8934 138.161 90.5535L138.151 70.0497C138.151 65.8732 137.953 61.5477 138.435 57.3993C139.985 44.0652 153.673 35.163 166.204 40.5936C175.179 44.4829 180.97 61.5262 184.669 70.9078C185.773 70.9182 190.261 68.2912 191.619 67.6545C232.508 48.4834 286.723 47.8449 326.355 70.9078Z"/>
	<defs>
		<linearGradient id="gradient_0" gradientUnits="userSpaceOnUse" x1="442.789" y1="205.1205" x2="374.39746" y2="219.40813">
			<stop offset="0" stop-color="#C8D5F6"/>
			<stop offset="1" stop-color="#7C9EF7"/>
		</linearGradient>
	</defs>
	<path fill="url(#gradient_0)" transform="scale(2 2)" d="M397.341 153.265C410.011 152.988 418.541 154.131 428.109 163.329C442.861 177.51 439.43 198.781 439.419 217.699C439.413 227.159 440.34 238.457 437.761 247.589C433.246 263.576 418.553 274.072 402.047 274.114C396.53 274.128 390.602 273.385 385.165 274.629C384.82 273.679 389.153 266.192 389.873 264.697C409.473 224.021 406.796 194.303 397.341 153.265Z"/>
	<defs>
		<linearGradient id="gradient_1" gradientUnits="userSpaceOnUse" x1="69.347549" y1="205.39844" x2="136.09329" y2="218.65506">
			<stop offset="0" stop-color="#C8D5F6"/>
			<stop offset="1" stop-color="#7C9EF7"/>
		</linearGradient>
	</defs>
	<path fill="url(#gradient_1)" transform="scale(2 2)" d="M109.145 153.265C111.056 153.262 112.973 153.227 114.883 153.265C112.673 158.021 111.474 163.625 110.409 168.752C102.926 204.789 108.791 241.775 126.344 273.888C110.381 273.92 97.3908 275.812 84.3526 264.37C69.5606 251.389 72.1792 232.799 72.1611 215.22C72.1521 206.477 71.3298 192.422 73.2359 184.21C77.1748 167.241 91.3962 154.103 109.145 153.265Z"/>
	<path fill="#7C9EF7" transform="scale(2 2)" d="M326.355 70.9078L331.629 58.5544C334.849 51.0829 337.566 43.427 345.674 40.0797C356.556 35.5871 368.211 41.2595 372.317 52.0452C374.395 57.5038 373.814 63.9687 373.806 69.703L373.796 83.8085C373.09 91.4424 373.925 101.731 373.796 109.688C364.217 96.3467 341.824 76.8207 326.355 70.9078Z"/>
	<defs>
		<linearGradient id="gradient_2" gradientUnits="userSpaceOnUse" x1="147.21484" y1="41.772888" x2="164.56714" y2="100.84251">
			<stop offset="0" stop-color="#C8D5F6"/>
			<stop offset="1" stop-color="#7C9EF7"/>
		</linearGradient>
	</defs>
	<path fill="url(#gradient_2)" transform="scale(2 2)" d="M138.16 100.642C138.32 97.31 138.163 93.8934 138.161 90.5535L138.151 70.0497C138.151 65.8732 137.953 61.5477 138.435 57.3993C139.985 44.0652 153.673 35.163 166.204 40.5936C175.179 44.4829 180.97 61.5262 184.669 70.9078C184.312 71.2938 184.016 71.3636 183.535 71.5414C167.741 77.3765 150.07 96.9688 138.16 109.688C138.174 106.726 138.4 103.585 138.16 100.642Z"/>
	<path fill="#7C9EF7" transform="scale(2 2)" d="M214.591 133.84L289.613 133.822C296.585 133.813 303.538 133.508 310.379 135.125C336.973 141.414 355.097 165.162 355.307 192.345L355.312 225.781C355.306 248.111 356.804 265.999 339.48 283.413C328.114 294.837 314.718 300.195 298.75 300.22L237.719 300.229C226.999 300.232 209.842 301.106 199.849 298.91C176.301 293.735 157.576 272.736 156.506 248.37C156.061 238.256 156.44 227.977 156.43 217.847C156.407 192.879 154.68 172.191 173.271 152.178C184.034 140.591 198.991 134.415 214.591 133.84Z"/>
	<defs>
		<linearGradient id="gradient_3" gradientUnits="userSpaceOnUse" x1="308.03503" y1="231.32365" x2="305.70056" y2="184.88937">
			<stop offset="0" stop-color="#7C9EF7"/>
			<stop offset="1" stop-color="#C8D5F6"/>
		</linearGradient>
	</defs>
	<path fill="url(#gradient_3)" transform="scale(2 2)" d="M304.89 184.823Q305.461 184.772 306.034 184.749Q306.607 184.726 307.18 184.731Q307.753 184.737 308.326 184.77Q308.898 184.803 309.468 184.864Q310.038 184.925 310.605 185.014Q311.171 185.103 311.733 185.219Q312.294 185.335 312.849 185.479Q313.404 185.623 313.952 185.794Q314.499 185.964 315.037 186.161Q315.576 186.359 316.104 186.582Q316.632 186.805 317.148 187.054Q317.665 187.303 318.169 187.577Q318.672 187.85 319.162 188.148Q319.652 188.446 320.127 188.768Q320.601 189.09 321.06 189.434Q321.518 189.779 321.959 190.145Q322.4 190.511 322.822 190.899Q323.245 191.286 323.648 191.694Q324.051 192.102 324.434 192.529Q324.816 192.956 325.178 193.401Q325.539 193.846 325.878 194.308Q326.218 194.771 326.534 195.249Q326.85 195.727 327.142 196.22Q327.435 196.713 327.703 197.22Q327.971 197.727 328.214 198.247Q328.457 198.766 328.674 199.296Q328.891 199.827 329.082 200.368Q329.273 200.908 329.438 201.458Q329.602 202.007 329.739 202.563Q329.877 203.12 329.987 203.683Q330.097 204.245 330.179 204.813Q330.261 205.38 330.316 205.951Q330.371 206.522 330.397 207.094Q330.424 207.667 330.422 208.24Q330.421 208.814 330.391 209.386Q330.362 209.959 330.305 210.529Q330.247 211.1 330.162 211.667Q330.077 212.234 329.964 212.796Q329.851 213.358 329.711 213.914Q329.571 214.47 329.404 215.018Q329.237 215.567 329.043 216.107Q328.849 216.646 328.629 217.176Q328.409 217.705 328.164 218.223Q327.918 218.741 327.648 219.247Q327.377 219.752 327.082 220.244Q326.787 220.736 326.469 221.212Q326.15 221.689 325.809 222.15Q325.467 222.61 325.104 223.054Q324.74 223.497 324.355 223.922Q323.971 224.347 323.565 224.753Q323.16 225.158 322.736 225.544Q322.311 225.929 321.869 226.293Q321.426 226.658 320.966 227Q320.506 227.342 320.029 227.661Q319.553 227.98 319.062 228.276Q318.571 228.572 318.066 228.843Q317.56 229.114 317.043 229.36Q316.525 229.606 315.996 229.827Q315.467 230.048 314.927 230.242Q314.388 230.437 313.84 230.605Q313.291 230.773 312.736 230.914Q312.18 231.055 311.618 231.168Q311.056 231.282 310.489 231.368Q309.922 231.454 309.352 231.512Q308.777 231.571 308.2 231.601Q307.622 231.631 307.044 231.633Q306.466 231.635 305.889 231.608Q305.311 231.582 304.736 231.526Q304.161 231.471 303.589 231.388Q303.017 231.305 302.449 231.193Q301.882 231.082 301.321 230.942Q300.76 230.803 300.207 230.636Q299.653 230.47 299.109 230.276Q298.564 230.082 298.03 229.862Q297.495 229.641 296.972 229.395Q296.449 229.148 295.939 228.876Q295.429 228.605 294.933 228.308Q294.437 228.011 293.956 227.69Q293.475 227.37 293.011 227.025Q292.546 226.681 292.099 226.315Q291.652 225.948 291.224 225.56Q290.796 225.172 290.387 224.763Q289.978 224.354 289.59 223.926Q289.202 223.497 288.836 223.05Q288.469 222.603 288.125 222.139Q287.781 221.674 287.46 221.193Q287.14 220.713 286.843 220.216Q286.546 219.72 286.275 219.21Q286.003 218.7 285.756 218.177Q285.51 217.654 285.29 217.12Q285.069 216.585 284.876 216.041Q284.682 215.496 284.515 214.943Q284.349 214.389 284.21 213.828Q284.07 213.267 283.959 212.7Q283.848 212.132 283.764 211.56Q283.681 210.988 283.626 210.413Q283.571 209.838 283.544 209.26Q283.518 208.683 283.52 208.105Q283.522 207.527 283.552 206.949Q283.582 206.372 283.641 205.797Q283.7 205.222 283.787 204.65Q283.874 204.079 283.989 203.513Q284.104 202.946 284.247 202.386Q284.39 201.826 284.56 201.273Q284.731 200.721 284.928 200.178Q285.125 199.634 285.349 199.101Q285.573 198.568 285.823 198.047Q286.072 197.526 286.348 197.017Q286.623 196.509 286.923 196.015Q287.223 195.521 287.547 195.042Q287.87 194.563 288.218 194.101Q288.565 193.639 288.934 193.194Q289.304 192.749 289.694 192.324Q290.085 191.898 290.497 191.492Q290.908 191.086 291.339 190.7Q291.77 190.315 292.219 189.951Q292.669 189.588 293.135 189.247Q293.602 188.906 294.085 188.588Q294.568 188.27 295.066 187.977Q295.564 187.684 296.076 187.415Q296.588 187.146 297.112 186.903Q297.637 186.66 298.173 186.444Q298.709 186.227 299.254 186.036Q299.8 185.846 300.355 185.683Q300.909 185.52 301.471 185.384Q302.033 185.249 302.601 185.141Q303.169 185.034 303.742 184.954Q304.314 184.874 304.89 184.823Z"/>
	<defs>
		<linearGradient id="gradient_4" gradientUnits="userSpaceOnUse" x1="209.41801" y1="230.56" x2="201.31659" y2="185.73796">
			<stop offset="0" stop-color="#7C9EF7"/>
			<stop offset="1" stop-color="#C8D5F6"/>
		</linearGradient>
	</defs>
	<path fill="url(#gradient_4)" transform="scale(2 2)" d="M202.051 185.307Q202.614 185.224 203.181 185.168Q203.748 185.112 204.316 185.084Q204.885 185.057 205.455 185.057Q206.024 185.057 206.593 185.085Q207.162 185.113 207.728 185.169Q208.295 185.225 208.858 185.308Q209.421 185.392 209.98 185.503Q210.538 185.614 211.091 185.753Q211.643 185.891 212.188 186.056Q212.733 186.222 213.269 186.413Q213.805 186.605 214.331 186.823Q214.857 187.041 215.372 187.284Q215.887 187.528 216.389 187.796Q216.891 188.065 217.38 188.357Q217.868 188.65 218.342 188.966Q218.815 189.283 219.273 189.622Q219.73 189.961 220.171 190.322Q220.611 190.683 221.033 191.065Q221.455 191.448 221.858 191.85Q222.26 192.253 222.643 192.675Q223.025 193.096 223.387 193.536Q223.748 193.977 224.088 194.434Q224.427 194.891 224.744 195.364Q225.06 195.838 225.353 196.326Q225.646 196.814 225.915 197.316Q226.183 197.818 226.427 198.333Q226.671 198.848 226.889 199.374Q227.107 199.9 227.299 200.436Q227.492 200.972 227.657 201.517Q227.823 202.061 227.961 202.614Q228.1 203.166 228.212 203.724Q228.323 204.283 228.407 204.846Q228.491 205.409 228.547 205.976Q228.603 206.542 228.632 207.111Q228.66 207.68 228.661 208.249Q228.661 208.819 228.634 209.387Q228.606 209.956 228.551 210.523Q228.495 211.09 228.412 211.653Q228.329 212.216 228.219 212.775Q228.108 213.333 227.97 213.886Q227.832 214.438 227.668 214.983Q227.503 215.529 227.312 216.065Q227.12 216.601 226.903 217.127Q226.686 217.654 226.443 218.169Q226.2 218.684 225.932 219.186Q225.664 219.689 225.372 220.177Q225.08 220.666 224.764 221.14Q224.448 221.614 224.109 222.072Q223.771 222.529 223.41 222.97Q223.049 223.411 222.668 223.833Q222.286 224.255 221.884 224.659Q221.482 225.062 221.06 225.445Q220.639 225.828 220.199 226.189Q219.759 226.551 219.302 226.891Q218.846 227.231 218.373 227.548Q217.9 227.865 217.412 228.158Q216.924 228.452 216.422 228.721Q215.92 228.99 215.406 229.235Q214.891 229.479 214.366 229.697Q213.84 229.916 213.304 230.109Q212.768 230.302 212.224 230.468Q211.679 230.634 211.127 230.773Q210.575 230.912 210.016 231.024Q209.458 231.137 208.895 231.221Q208.331 231.306 207.764 231.362Q207.197 231.419 206.627 231.448Q206.058 231.477 205.488 231.478Q204.917 231.479 204.348 231.452Q203.778 231.425 203.211 231.37Q202.643 231.315 202.079 231.232Q201.515 231.149 200.956 231.039Q200.397 230.929 199.843 230.791Q199.29 230.653 198.744 230.488Q198.198 230.324 197.661 230.132Q197.124 229.941 196.597 229.724Q196.07 229.506 195.554 229.263Q195.039 229.02 194.535 228.752Q194.032 228.484 193.543 228.191Q193.053 227.899 192.579 227.583Q192.105 227.266 191.646 226.927Q191.188 226.588 190.747 226.227Q190.305 225.866 189.883 225.484Q189.46 225.101 189.056 224.698Q188.652 224.296 188.269 223.874Q187.886 223.452 187.524 223.011Q187.161 222.571 186.821 222.113Q186.481 221.656 186.164 221.182Q185.847 220.708 185.553 220.22Q185.26 219.731 184.99 219.228Q184.721 218.726 184.477 218.211Q184.233 217.695 184.014 217.169Q183.795 216.642 183.603 216.106Q183.41 215.569 183.244 215.023Q183.078 214.478 182.939 213.925Q182.8 213.372 182.689 212.813Q182.577 212.254 182.493 211.69Q182.409 211.126 182.353 210.559Q182.296 209.991 182.268 209.422Q182.24 208.852 182.239 208.282Q182.239 207.712 182.267 207.143Q182.294 206.573 182.35 206.006Q182.405 205.438 182.489 204.874Q182.572 204.31 182.683 203.751Q182.794 203.192 182.932 202.638Q183.07 202.085 183.236 201.54Q183.401 200.994 183.593 200.457Q183.785 199.92 184.003 199.393Q184.221 198.866 184.464 198.351Q184.708 197.835 184.976 197.332Q185.245 196.83 185.538 196.34Q185.831 195.851 186.148 195.377Q186.464 194.903 186.804 194.445Q187.143 193.987 187.505 193.546Q187.867 193.105 188.249 192.683Q188.632 192.26 189.035 191.857Q189.439 191.454 189.861 191.071Q190.283 190.688 190.724 190.326Q191.165 189.964 191.623 189.625Q192.081 189.285 192.555 188.968Q193.029 188.652 193.518 188.359Q194.007 188.065 194.51 187.797Q195.013 187.528 195.528 187.284Q196.044 187.04 196.57 186.822Q197.097 186.604 197.634 186.412Q198.171 186.22 198.717 186.055Q199.262 185.889 199.815 185.751Q200.368 185.613 200.928 185.502Q201.487 185.391 202.051 185.307Z"/>
	<path fill="#C8D5F6" transform="scale(2 2)" d="M233.236 247.797C242.537 247.102 249.798 260.765 264.839 253.65C269.346 251.518 272.824 247.516 278.305 248.616C289.427 250.848 286.498 261.282 278.005 266.939C249.797 288.181 207.433 254.154 233.236 247.797Z"/>
	<path fill="#7C9EF7" transform="scale(2 2)" d="M195.946 337.63C199.757 338.403 216.099 345.089 220.377 346.848L220.863 346.851C226.279 346.902 232.709 349.049 238.294 349.788C255.422 352.057 275.104 351.592 291.795 346.848C300.253 344.601 308.913 341.899 316.596 337.63C318.862 339.264 321.483 340.484 323.924 341.846C350.762 356.819 371.175 382.4 381.956 410.964C388.204 427.518 394.887 457.921 372.805 465.788C366.93 467.881 360.426 467.078 354.315 467.068L160.215 467.075C146.166 467.114 131.614 468.334 125.934 451.691C121.224 437.893 130.418 408.832 136.738 396.184C147.851 373.947 171.19 345.912 195.946 337.63Z"/>
	<defs>
		<linearGradient id="gradient_5" gradientUnits="userSpaceOnUse" x1="256.25504" y1="346.97305" x2="256.03494" y2="381.01801">
			<stop offset="0" stop-color="#7C9EF7"/>
			<stop offset="1" stop-color="#C8D5F6"/>
		</linearGradient>
	</defs>
	<path fill="url(#gradient_5)" transform="scale(2 2)" d="M220.377 346.848L220.863 346.851C226.279 346.902 232.709 349.049 238.294 349.788C255.422 352.057 275.104 351.592 291.795 346.848C292.396 385.766 233.081 395.623 221.964 355.377C221.206 352.634 221.48 349.458 220.377 346.848Z"/>
</svg>
